<mxfile host="app.diagrams.net" agent="Mozilla/5.0 (Linux; Android 10; K) AppleWebKit/537.36 (KHTML, like Gecko) Chrome/129.0.0.0 Safari/537.36" version="24.7.17">
  <diagram name="PÃ¡gina-1" id="beHFL3TMb3UMmvZm7hmn">
    <mxGraphModel grid="1" page="1" gridSize="10" guides="1" tooltips="1" connect="1" arrows="1" fold="1" pageScale="1" pageWidth="827" pageHeight="1169" math="0" shadow="0">
      <root>
        <mxCell id="0" />
        <mxCell id="1" parent="0" />
        <mxCell id="5ttsca5VcccPOsaIv2tY-7" value="" style="edgeStyle=orthogonalEdgeStyle;rounded=0;orthogonalLoop=1;jettySize=auto;html=1;" edge="1" parent="1" source="5ttsca5VcccPOsaIv2tY-1" target="5ttsca5VcccPOsaIv2tY-6">
          <mxGeometry relative="1" as="geometry" />
        </mxCell>
        <mxCell id="5ttsca5VcccPOsaIv2tY-1" value="" style="ellipse;whiteSpace=wrap;html=1;aspect=fixed;" vertex="1" parent="1">
          <mxGeometry x="384" y="25" width="30" height="30" as="geometry" />
        </mxCell>
        <mxCell id="5ttsca5VcccPOsaIv2tY-2" value="" style="ellipse;whiteSpace=wrap;html=1;aspect=fixed;" vertex="1" parent="1">
          <mxGeometry x="384" y="545" width="30" height="30" as="geometry" />
        </mxCell>
        <mxCell id="dT6S8j86tNrpdhoANJ8A-2" value="" style="edgeStyle=none;curved=1;rounded=0;orthogonalLoop=1;jettySize=auto;html=1;fontSize=12;startSize=8;endSize=8;" edge="1" parent="1" source="5ttsca5VcccPOsaIv2tY-6" target="dT6S8j86tNrpdhoANJ8A-1">
          <mxGeometry relative="1" as="geometry" />
        </mxCell>
        <mxCell id="5ttsca5VcccPOsaIv2tY-6" value="Num1, Num2, Num3" style="shape=card;whiteSpace=wrap;html=1;" vertex="1" parent="1">
          <mxGeometry x="343.5" y="110" width="111" height="60" as="geometry" />
        </mxCell>
        <mxCell id="dT6S8j86tNrpdhoANJ8A-7" value="" style="edgeStyle=none;curved=1;rounded=0;orthogonalLoop=1;jettySize=auto;html=1;fontSize=12;startSize=8;endSize=8;" edge="1" parent="1">
          <mxGeometry relative="1" as="geometry">
            <mxPoint x="340" y="319.71" as="sourcePoint" />
            <mxPoint x="220" y="319.71" as="targetPoint" />
            <Array as="points">
              <mxPoint x="290" y="319.71" />
            </Array>
          </mxGeometry>
        </mxCell>
        <mxCell id="dT6S8j86tNrpdhoANJ8A-8" value="F" style="edgeLabel;html=1;align=center;verticalAlign=middle;resizable=0;points=[];fontSize=12;" vertex="1" connectable="0" parent="dT6S8j86tNrpdhoANJ8A-7">
          <mxGeometry x="-0.0682" y="4" relative="1" as="geometry">
            <mxPoint as="offset" />
          </mxGeometry>
        </mxCell>
        <mxCell id="dT6S8j86tNrpdhoANJ8A-10" value="V" style="edgeStyle=none;curved=1;rounded=0;orthogonalLoop=1;jettySize=auto;html=1;fontSize=12;startSize=8;endSize=8;" edge="1" parent="1" source="dT6S8j86tNrpdhoANJ8A-1" target="dT6S8j86tNrpdhoANJ8A-9">
          <mxGeometry relative="1" as="geometry">
            <Array as="points">
              <mxPoint x="520" y="320" />
            </Array>
          </mxGeometry>
        </mxCell>
        <mxCell id="dT6S8j86tNrpdhoANJ8A-1" value="Num1 &amp;gt;= Num2" style="rhombus;whiteSpace=wrap;html=1;" vertex="1" parent="1">
          <mxGeometry x="340" y="280" width="120" height="80" as="geometry" />
        </mxCell>
        <mxCell id="dT6S8j86tNrpdhoANJ8A-12" value="" style="edgeStyle=none;curved=1;rounded=0;orthogonalLoop=1;jettySize=auto;html=1;fontSize=12;startSize=8;endSize=8;" edge="1" parent="1" source="dT6S8j86tNrpdhoANJ8A-6" target="dT6S8j86tNrpdhoANJ8A-11">
          <mxGeometry relative="1" as="geometry" />
        </mxCell>
        <mxCell id="dT6S8j86tNrpdhoANJ8A-6" value="Num2 &amp;gt;= Num3" style="rhombus;whiteSpace=wrap;html=1;" vertex="1" parent="1">
          <mxGeometry x="100" y="280" width="120" height="80" as="geometry" />
        </mxCell>
        <mxCell id="dT6S8j86tNrpdhoANJ8A-9" value="Num1 &amp;gt;= Num3" style="rhombus;whiteSpace=wrap;html=1;" vertex="1" parent="1">
          <mxGeometry x="580" y="280" width="120" height="80" as="geometry" />
        </mxCell>
        <mxCell id="dT6S8j86tNrpdhoANJ8A-11" value="Num2 &amp;gt;= Num3" style="rhombus;whiteSpace=wrap;html=1;" vertex="1" parent="1">
          <mxGeometry x="-140" y="280" width="120" height="80" as="geometry" />
        </mxCell>
      </root>
    </mxGraphModel>
  </diagram>
</mxfile>
